<?xml version="1.0" standalone="no"?><!DOCTYPE svg PUBLIC "-//W3C//DTD SVG 1.1//EN" "http://www.w3.org/Graphics/SVG/1.1/DTD/svg11.dtd"><svg t="1756533209645" class="icon" viewBox="0 0 1024 1024" version="1.1" xmlns="http://www.w3.org/2000/svg" p-id="16284" xmlns:xlink="http://www.w3.org/1999/xlink" width="200" height="200"><path d="M516.2 779.5c4.4 0 9-0.3 13.5-0.8 43.7-5.3 80.8-36.4 94.5-79.2 1-3.2-0.5-6.6-3.5-8-3-1.4-6.6-0.2-8.3 2.7-0.2 0.3-17.5 28.8-85.1 38.1-10.1 1.4-20 2.1-29.3 2.1-47.3 0-68.4-18.2-68.6-18.4-2.4-2.2-6-2.2-8.5-0.1s-3 5.7-1.4 8.5c20.7 34 57.7 55.1 96.7 55.1z m363.3-426.1c-0.6 0-1.1 0.1-1.7 0.1C838.2 179.1 686.9 49 505.5 49c-186.4 0-341.1 137.3-375.4 318.9-33.4 6.1-58.7 35.9-58.7 72v144.4c0 40.5 31.9 73.3 71.3 73.3 22.2 0 41.8-10.7 54.9-27.1 31.5 84.8 94.7 153.2 175.9 189.3 0.2-0.4 6.1-8.7 8.6-9.8-18.8-14.2-83.3-85.4-98-187.5-6.5-44.9 26.6-89.1 65.2-96.4 61.9-11.7 123.4-25.1 185.3-36.6 39.3-7.3 66.2-29.2 82.6-65.8 3.8-8.5 9.4-25.8 12-50.7 2.9-10.8 15.3-4.4 15.3-4.4 24.4 36 72.7 115.8 79.7 199.8 8 96.1 4.4 161.9-67.9 229.2-2.6 2.6-2 12.3 7.5 8.5 73.1-41 129.2-109.5 155.2-191.8 10.5 15.9 26.9 27.3 46 31.3-30.9 141.8-155.1 230.5-309 244-9.2-23.3-31.9-39.8-58.6-39.8-34.8 0-63.1 28.1-63.1 62.6 0 34.6 28.2 62.6 63.1 62.6 28.1 0 51.6-18.3 59.7-43.6C735.3 916.7 878 809 907.8 641.6c26.3-11.2 44.8-37.5 44.8-68.2v-146c0.1-40.9-32.7-74-73.1-74z m-65.7 42c-46.5-128-166.8-219.5-308.4-219.5-141 0-261 90.7-307.8 217.9-2.3-2.9-5.1-5.4-7.8-7.9C216.3 230.9 347.4 113 505.5 113c157.3 0 288 116.7 315.5 270.6-2.7 3.7-5.2 7.6-7.2 11.8zM373.3 819.8c0 0.1 0 0.1 0 0z" fill="#48D18D" p-id="16285"></path></svg>