<?xml version="1.0" standalone="no"?><!DOCTYPE svg PUBLIC "-//W3C//DTD SVG 1.1//EN" "http://www.w3.org/Graphics/SVG/1.1/DTD/svg11.dtd"><svg t="1756533146993" class="icon" viewBox="0 0 1024 1024" version="1.1" xmlns="http://www.w3.org/2000/svg" p-id="13146" xmlns:xlink="http://www.w3.org/1999/xlink" width="200" height="200"><path d="M796.444444 227.555556a56.888889 56.888889 0 0 1 56.888889 56.888888v398.222223a56.888889 56.888889 0 0 1-56.888889 56.888889H468.536889a56.888889 56.888889 0 0 0-25.429333 6.001777l-146.318223 73.159111a8.533333 8.533333 0 0 1-12.344889-7.623111V768a28.444444 28.444444 0 0 0-28.444444-28.444444H227.555556a56.888889 56.888889 0 0 1-56.888889-56.888889V284.444444a56.888889 56.888889 0 0 1 56.888889-56.888888zM505.742222 568.832c-8.362667 0-15.132444 2.389333-20.309333 7.964444-5.973333 5.176889-8.760889 11.946667-8.760889 20.309334 0 7.964444 2.787556 14.734222 8.760889 20.309333a26.453333 26.453333 0 0 0 20.309333 8.362667c7.964444 0 15.132444-2.787556 21.105778-7.964445a27.904 27.904 0 0 0 8.362667-20.707555 26.453333 26.453333 0 0 0-8.362667-20.309334c-5.575111-5.575111-12.743111-7.964444-21.105778-7.964444z m6.769778-232.96c-29.070222 0-52.167111 8.362667-68.892444 25.486222-17.123556 16.725333-25.486222 39.424-25.486223 68.494222h42.211556c0-17.521778 3.584-31.459556 10.752-41.016888 7.964444-11.150222 21.105778-16.725333 39.025778-16.725334 14.336 0 25.486222 3.982222 33.450666 11.946667 7.566222 7.964444 11.548444 18.716444 11.548445 32.654222 0 10.353778-3.584 19.911111-10.752 29.070222l-6.769778 7.566223c-24.689778 21.902222-39.822222 38.229333-45.397333 49.379555-5.176889 10.353778-7.566222 23.096889-7.566223 37.831111v6.769778h42.609778v-6.769778c0-9.955556 1.991111-18.716444 6.371556-26.680889 3.584-7.168 9.159111-13.937778 16.327111-20.309333 19.114667-16.327111 30.264889-26.680889 33.848889-31.061333 9.557333-12.743111 14.734222-29.070222 14.734222-48.583111 0-23.893333-7.964444-43.008-23.495111-56.945778-15.928889-14.336-36.636444-21.105778-62.520889-21.105778z" fill="#0BC49D" p-id="13147"></path></svg>